<svg width="64" height="64" viewBox="0 0 256 256" fill="none" xmlns="http://www.w3.org/2000/svg">
  <rect width="256" height="256" rx="52" fill="#0B2F4A"/>
  <path d="M127.999 58C133.687 58 138.299 62.6122 138.299 68.3V131.449L176.978 106.488C181.758 103.403 188.139 104.77 191.233 109.544C194.327 114.318 192.963 120.69 188.188 123.79L149.388 148.824L149.389 174.332C149.389 191.845 165.443 202.382 180.07 206.362L186.914 208.226C188.235 208.586 188.919 210.031 188.526 211.342C188.212 212.392 187.245 213.11 186.149 213.11H70.0473C68.6781 213.11 67.5673 212 67.5673 210.63C67.5673 209.545 68.2704 208.585 69.3065 208.228L75.6271 206.049C89.907 201.127 106.61 190.574 106.61 174.332V148.824L67.8102 123.79C63.0355 120.69 61.6718 114.318 64.7658 109.544C67.8599 104.77 74.2407 103.403 79.0209 106.488L117.699 131.449V68.3C117.699 62.6122 122.311 58 127.999 58Z" fill="white"/>
  <circle cx="84" cy="96" r="22" fill="#67D1C8"/>
  <circle cx="124" cy="70" r="20" fill="#67D1C8"/>
  <circle cx="159" cy="88" r="17" fill="#FFB258"/>
  <circle cx="193" cy="112" r="19" fill="#FFB258"/>
</svg>
